<?xml version="1.0" standalone="no"?>
<!DOCTYPE svg PUBLIC "-//W3C//DTD SVG 20010904//EN"
 "http://www.w3.org/TR/2001/REC-SVG-20010904/DTD/svg10.dtd">
<svg version="1.0" xmlns="http://www.w3.org/2000/svg"
 width="626.000000pt" height="626.000000pt" viewBox="0 0 626.000000 626.000000"
 preserveAspectRatio="xMidYMid meet">
<metadata>
Created by potrace 1.14, written by Peter Selinger 2001-2017
</metadata>
<g transform="translate(0.000000,626.000000) scale(0.100000,-0.100000)"
fill="#000000" stroke="none">
<path d="M3001 4669 c-164 -84 -356 -373 -472 -712 -75 -222 -110 -426 -130
-765 -23 -378 17 -616 138 -815 50 -83 184 -220 313 -322 165 -130 292 -268
362 -395 28 -51 71 -161 65 -167 -8 -7 -128 42 -232 95 -390 197 -764 544
-765 710 0 44 26 92 50 92 17 0 50 -34 50 -52 0 -3 -12 -8 -27 -10 -57 -6 -32
-68 27 -68 80 0 80 123 0 187 -23 19 -75 15 -104 -8 -84 -66 -78 -207 15 -345
81 -120 290 -306 489 -436 182 -119 448 -238 531 -238 39 0 45 20 31 89 -38
181 -220 424 -442 591 -233 175 -356 343 -411 562 -16 65 -22 126 -26 285 -10
381 37 738 133 1004 120 334 307 610 451 665 39 15 52 16 92 5 70 -18 147 -69
211 -138 68 -74 109 -149 154 -276 18 -52 44 -114 59 -139 26 -45 108 -125
236 -230 97 -80 106 -96 105 -181 0 -40 -10 -107 -23 -152 -45 -166 -187 -403
-235 -392 -12 3 -57 14 -100 26 -185 49 -415 13 -544 -85 -53 -41 -92 -102
-92 -143 0 -75 53 -111 174 -118 172 -10 388 63 527 179 l62 51 34 -19 c56
-30 200 -138 282 -211 180 -160 299 -326 347 -480 23 -72 26 -96 22 -180 -6
-119 -30 -187 -96 -272 -85 -110 -210 -187 -360 -222 -121 -29 -274 -23 -386
15 -88 30 -106 28 -106 -8 0 -20 9 -28 53 -44 91 -34 168 -46 287 -45 206 2
377 70 511 203 150 150 201 331 149 536 -40 161 -156 342 -316 493 -70 66
-211 177 -349 274 -19 14 -19 16 18 60 111 136 200 344 213 502 10 108 -6 148
-84 225 -37 36 -87 81 -112 100 -129 100 -166 152 -216 299 -42 126 -103 229
-177 303 -118 117 -286 168 -386 117z m542 -1595 c31 -9 57 -20 57 -23 0 -12
-102 -83 -169 -117 -165 -84 -429 -105 -456 -36 -19 50 122 154 250 186 76 19
238 14 318 -10z"/>
<path d="M1650 3538 c-63 -43 -75 -137 -24 -198 29 -34 59 -43 79 -23 19 19
20 17 -15 53 -50 51 -36 120 24 120 69 0 152 -67 226 -181 83 -129 198 -377
281 -607 34 -92 57 -118 82 -93 15 15 -1 72 -65 236 -115 294 -257 548 -353
633 -55 48 -99 70 -157 78 -35 5 -50 1 -78 -18z"/>
<path d="M1505 3206 c-91 -41 -133 -172 -81 -251 25 -38 109 -32 122 8 8 26
-17 46 -51 39 -24 -4 -25 -2 -25 40 0 80 63 129 140 108 145 -39 434 -390 532
-647 13 -35 21 -43 42 -43 22 0 26 5 26 28 0 35 -55 158 -109 247 -140 226
-341 433 -460 473 -44 16 -99 15 -136 -2z"/>
</g>
</svg>
